<?xml version="1.0" encoding="UTF-8"?>
<svg id="Capa_2" data-name="Capa 2" xmlns="http://www.w3.org/2000/svg" viewBox="0 0 239.2 72.8">
  <defs>
    <style>
      .cls-1 {
        fill: #6c42f9;
      }

      .cls-2 {
        fill: #00e55e;
      }

      .cls-3 {
        fill: #071424;
      }

      .cls-4 {
        fill: #e6484b;
      }
    </style>
  </defs>
  <g id="Capa_1-2" data-name="Capa 1">
    <g>
      <g>
        <g>
          <path class="cls-3" d="M86.6.7h-9.2v10.1h-6.6v8h6.6v18.4c1.5,10.9,17.7,9.6,20.5,9.3.2,0,.4-.2.4-.4v-6s0,0,0,0c0-.2-.3-.4-.5-.3-12.3,2.4-11.2-4.4-11.2-4.4v-16.4h11.8v-8h-11.7V.7Z"/>
          <path class="cls-3" d="M170.5,18.8h11.7v-8h-11.7V.7h-9.2v10.1h-6.6v8h6.6v18.4c1.5,10.9,17.7,9.6,20.5,9.3.2,0,.4-.2.4-.4v-6s0,0,0,0c0-.2-.3-.4-.5-.3-12.3,2.4-11.2-4.4-11.2-4.4v-16.4Z"/>
          <path class="cls-3" d="M59.6,32c0,5.2-2,7.9-5.8,7.9s-5.8-2.5-5.8-7.2V10.8h-9.1v22.5c0,5.3,1,8,4.2,10.5,2.6,2.1,6.1,3,10.7,3s8.1-1,10.8-3.2c3.1-2.5,4.2-5.4,4.2-11V10.8h-9.1v21.3Z"/>
          <path class="cls-3" d="M18.5,9.8h0C8.3,9.8,0,18,0,28.2s8.3,18.5,18.5,18.5,18.5-8.3,18.5-18.5c0-10.2-8.3-18.5-18.5-18.5ZM18.5,38.9c-5.9,0-10.6-4.8-10.6-10.6s4.8-10.6,10.6-10.6c5.9,0,10.6,4.8,10.6,10.6s-4.8,10.6-10.6,10.6Z"/>
          <path class="cls-3" d="M140.9,10c-9.9-2.2-19.8,4.1-22,14-2.2,9.9,4.1,19.8,14,22,8.8,1.9,17.7-2.8,21.1-11.1h-9c-3.8,4.5-10.5,5-15,1.2-1.3-1.1-2.3-2.5-3-4.1h27.9c2.2-9.9-4.1-19.8-14-22ZM127,24.2c2.1-5.5,8.3-8.2,13.8-6.1,2.8,1.1,5,3.3,6.1,6.1h-19.9Z"/>
          <path class="cls-3" d="M120.6,39.6c-12.3,2.4-11.2-4.4-11.2-4.4V13.3c.1,0,.1-12.6.1-12.6h-9.2v36.5c1.5,10.9,17.7,9.6,20.5,9.3.2,0,.4-.2.4-.5v-6s0,0,0,0c0-.2-.3-.4-.5-.4Z"/>
        </g>
        <g>
          <path class="cls-2" d="M226.2,36l-2.1-2.1c-.3-.3-.6-.4-1-.4-.4,0-.8.1-1,.4l-3,3v-10.4c0-.8-.7-1.5-1.5-1.5h-2.9c-.8,0-1.5.7-1.5,1.5v10.4l-3-3c-.3-.3-.6-.4-1-.4h0c-.4,0-.7.1-1,.4l-2.1,2.1c-.3.3-.4.6-.4,1,0,.4.1.7.4,1l9.1,9.1c.3.3.7.4,1,.4s.7-.1,1-.4l9.1-9.1c.6-.6.6-1.5,0-2.1Z"/>
          <g>
            <path class="cls-1" d="M237.7,0h-23c-.4,0-.8.1-1,.4l-21.6,21.6c-.6.6-.6,1.5,0,2.1l9.1,9.1c.6.6,1.5.6,2.1,0l2.1-2.1c.3-.3.4-.6.4-1,0-.4-.1-.8-.4-1l-5.8-5.8c0,0,0-.2,0-.3l17-17s0,0,.1,0h16.5c0,0,.1,0,.1,0,0,0,0,0,0,.1v16.5s0,0,0,.1l-6.3,6.3c-.3.3-.4.6-.4,1,0,.4.1.8.4,1l2.1,2.1c.3.3.7.4,1,.4s.7-.1,1-.4l7.7-7.7c.3-.3.4-.7.4-1v-2.3h0s0-20.7,0-20.7c0-.8-.7-1.5-1.5-1.5Z"/>
            <path class="cls-1" d="M229.5,13c0-1.8-1.5-3.3-3.3-3.3s-3.3,1.5-3.3,3.3,1.5,3.3,3.3,3.3,3.3-1.5,3.3-3.3Z"/>
          </g>
        </g>
      </g>
      <g>
        <path class="cls-4" d="M73,65.5c0-.4,0-1.9,0-2.2-.5-2.7-2.8-4.8-5.6-4.9,0,0-.1,0-.2,0-3.3,0-5.9,2.6-5.9,5.9s2.6,5.9,5.9,5.9.1,0,.2,0c0,0,.1,0,.2,0,2,0,3.7-1,4.8-2.4l-2.5-1.3c-.5.7-1.3,1.2-2.2,1.2s-.1,0-.2,0c0,0-.1,0-.2,0-1.2,0-2.2-1-2.3-2.2h8.1ZM64.9,63.3c0-1.3,1-2.3,2.3-2.3s2.3,1,2.3,2.3h-4.7ZM48.1,63.7v6.5h-3.3v-6.5c0-1.1-.9-2.1-2.1-2.1s-2.1.9-2.1,2.1v6.5h-3.3v-6.5c0-1.1-.9-2.1-2.1-2.1s-2.1.9-2.1,2.1v6.5h-3.3v-6.5c0-2.2,1.3-4.1,3.3-4.9.6-.3,1.3-.4,2-.4,0,0,0,0,0,0s0,0,0,0c.7,0,1.4.2,2,.4.6.3,1.2.6,1.6,1.1.5-.5,1-.8,1.6-1.1.6-.3,1.3-.4,2-.4,0,0,0,0,0,0s0,0,0,0c.7,0,1.4.2,2,.4,1.9.8,3.3,2.7,3.3,4.9ZM53.6,70.2h-3.3v-12h3.3v12ZM59.2,70.2h-3.3l.5-17.1h3.3l-.5,17.1ZM54.2,54.9c0,1-.8,1.8-1.8,1.8s-1.8-.8-1.8-1.8.8-1.8,1.8-1.8,1.8.8,1.8,1.8ZM83.4,66.8c0,1.1-.6,2.1-1.6,2.6,0,0,0,0-.1,0-1.8,1-4,1-5.8-.2,0,0,0,0,0,0,0,0,0,0,0,0-.5-.4-1-.8-1.2-1.5,0,0,0-.2-.1-.3l1-.5,1.4-.7h.1c0,.2.2.5.4.8.7.9,2.1,1.1,3,.3,0,0,0,0,0,0,.4-.4.4-.9.1-1.4-.1-.2-.3-.3-.5-.3h0s0,0,0,0h0s-1.2-.4-1.2-.4l-1.5-.4s0,0,0,0c0,0,0,0-.1,0h0s0,0,0,0h-.2c-.3-.2-.5-.3-.7-.4-.3-.2-.6-.5-.8-.8-.5-.6-.7-1.4-.6-2.2,0-.2,0-.4,0-.5,0-.3.2-.5.3-.8.2-.3.4-.6.7-.8,0,0,0,0,0,0,0,0,0,0,.1,0,0,0,0,0,.1,0,0,0,0,0,0,0,1.9-1.4,4.4-1.2,6.1.2.3.3.6.5.7.9.1.2.2.4.3.6l-2.3,1.1h-.2c0-.7-.7-1.3-1.5-1.5-.6-.1-1.1,0-1.5.4,0,0,0,0,0,0-.1.1-.2.3-.3.5,0,.5.2.9.7,1l1.2.3,1.3.4h0s.4.1.4.1h0s.2,0,.2,0c.3,0,.5.2.7.3.2.1.4.3.6.4.2.2.4.5.6.8.2.3.3.6.3.9,0,.3,0,.6,0,.9Z"/>
        <path class="cls-3" d="M93.5,69.6c-.6,0-1.1,0-1.6-.3-.5-.2-1-.4-1.4-.7-.4-.3-.8-.7-1.1-1.1-.3-.4-.5-.9-.7-1.4-.2-.5-.2-1.1-.2-1.7s0-1.2.2-1.7c.2-.5.4-1,.7-1.5.3-.4.7-.8,1.1-1.2.4-.3.9-.6,1.4-.7s1-.3,1.6-.3,1,0,1.5.2.9.3,1.3.6c.4.3.7.6,1,.9.3.4.5.8.6,1.2l-2,.5c-.2-.5-.5-.9-.9-1.2-.4-.3-.9-.4-1.4-.4s-.8,0-1.1.3c-.3.2-.6.4-.9.7-.2.3-.4.7-.6,1.1-.1.4-.2.9-.2,1.3s0,.9.2,1.3c.1.4.3.8.6,1s.5.5.9.7c.3.2.7.2,1.1.2s1-.1,1.4-.4c.4-.3.7-.7,1-1.2l2,.5c-.2.6-.5,1.1-.9,1.6-.4.4-.9.8-1.5,1-.6.2-1.2.4-2,.4ZM99.4,69.3l4-10h2.2l4,10h-2.1l-.8-2.2h-4.3l-.8,2.2h-2.1ZM102.9,65.4h3l-1.5-4-1.5,4ZM111.8,69.3v-10h3.2c.8,0,1.5.1,2.1.4.6.3,1.1.6,1.4,1.1.3.5.5,1.1.5,1.7s0,.8-.2,1.1c-.1.4-.3.7-.6,1-.3.3-.6.5-.9.7l2.3,4h-2.3l-1.8-3.5c-.2,0-.4,0-.6,0-.3,0-.6,0-1,0v3.5h-2.1ZM113.8,61.1v2.9c.2,0,.4,0,.5,0,.2,0,.4,0,.6,0,.6,0,1.1-.1,1.4-.4.3-.3.5-.6.5-1.1s-.2-.8-.5-1.1c-.3-.3-.8-.4-1.4-.4h-1.1ZM125.1,69.3v-10h3.2c.8,0,1.5.1,2.1.4.6.3,1.1.6,1.4,1.1.3.5.5,1.1.5,1.7s0,.8-.2,1.1c-.1.4-.3.7-.6,1-.3.3-.6.5-.9.7l2.3,4h-2.3l-1.8-3.5c-.2,0-.4,0-.6,0-.3,0-.6,0-1,0v3.5h-2.1ZM127.2,61.1v2.9c.2,0,.4,0,.5,0,.2,0,.4,0,.6,0,.6,0,1.1-.1,1.4-.4.3-.3.5-.6.5-1.1s-.2-.8-.5-1.1c-.3-.3-.8-.4-1.4-.4h-1.1ZM135,69.3v-10h6.3v1.8h-4.2v2.2h3.8v1.8h-3.8v2.4h4.4v1.8h-6.4ZM144.2,69.3v-10h1.8l4.6,6.6v-6.6h2v10h-1.8l-4.6-6.6v6.6h-2ZM158.1,69.3v-8.1h-2.8v-1.9h7.7v1.9h-2.8v8.1h-2.1ZM163.6,69.3l4-10h2.2l4,10h-2.1l-.8-2.2h-4.3l-.8,2.2h-2.1ZM167.2,65.4h3l-1.5-4-1.5,4ZM176,69.3v-10h2.1v8.1h4.1v1.9h-6.2Z"/>
        <g>
          <path class="cls-3" d="M10.8,60.9h3.3c.9,0,1.6.2,2.1.7s.8,1.1.8,1.8-.1.9-.4,1.3c-.3.4-.6.6-1,.7.5.1.9.4,1.2.8.3.4.5.9.5,1.4s-.3,1.4-.8,1.9c-.5.5-1.2.7-2.1.7h-3.6v-9.3ZM12.6,64.8h1.3c.4,0,.7-.1,1-.3.2-.2.4-.5.4-.9s-.1-.6-.3-.8c-.2-.2-.6-.3-1-.3h-1.3v2.3ZM12.6,68.7h1.5c.4,0,.8-.1,1-.3.2-.2.4-.5.4-.9s-.1-.7-.4-.9c-.2-.2-.6-.3-1-.3h-1.5v2.5Z"/>
          <path class="cls-3" d="M20.9,72.8h-1.8l1.5-3.4-2.7-5.6h2l1.7,3.8,1.6-3.8h1.9l-4.1,9Z"/>
        </g>
      </g>
    </g>
  </g>
</svg>